<svg xmlns="http://www.w3.org/2000/svg" width="203.2" height="70.1" viewBox="0 0 203.2 70.1">
	<path fill="#D8433B" d="M0 0h203v70h-203v-70z"/>
	<path fill="#fff" stroke="#fff" stroke-width=".75" d="M85 20.4l-15.6 29h-5.5l-15.6-29h5.4l13 24.2 13-24.2h5.3zm12.9 29h-4.8v-29h4.8v29zm39.1-22.2c-4.3-2.2-8.6-3.2-13.1-3.2-3 0-5.2.3-6.8 1-1.6.7-2.4 1.7-2.4 2.9 0 1.3.8 2.2 2.5 2.8 1.2.4 3.2.7 5.9.9 4 .3 6.6.5 7.9.6 3.6.5 6.3 1.4 8 2.7 1.7 1.3 2.6 3.2 2.6 5.6 0 3.1-1.4 5.4-4.1 7.1-2.7 1.7-6.6 2.5-11.7 2.5-7.4 0-13.1-1.6-17.3-4.9l2.6-3.5c4.5 2.8 9.4 4.2 14.7 4.2 3.4 0 6-.5 7.9-1.4 1.8-.9 2.7-2.1 2.7-3.7 0-1.8-1.2-3.1-3.5-3.7-1.2-.3-4.5-.7-9.9-1-4.8-.3-8.1-1-10.1-1.9-2.2-1.1-3.4-3-3.4-5.6 0-2.7 1.3-4.9 3.8-6.4 2.5-1.6 6.1-2.4 10.8-2.4 6.2 0 11.5 1.4 15.7 4.3l-2.8 3.1zm50.8 7.7c0 4.8-2 8.6-5.8 11.5-3.4 2.6-7.7 3.8-12.7 3.8-5.1 0-9.4-1.3-12.8-3.9-3.9-2.9-5.8-6.8-5.8-11.5 0-4.6 2-8.5 5.9-11.5 3.5-2.6 7.7-3.9 12.7-3.9s9.3 1.3 12.7 3.9c3.9 3.1 5.8 6.9 5.8 11.6zm-5 0c0-3.4-1.4-6.1-4.3-8.2-2.5-1.8-5.6-2.7-9.2-2.7-4 0-7.3 1-9.8 3.1-2.5 2.1-3.8 4.7-3.8 7.9 0 3.3 1.2 5.9 3.7 7.9s5.8 3 9.9 3 7.4-1 9.9-3c2.4-2.1 3.6-4.8 3.6-8zm-131.9 14.5h-5.3l-3.3-6.5h-19.6l-3.3 6.5h-5.3l15.3-29h6l15.5 29zm-11-10.8l-7.4-14-7.5 14h14.9z"/>
</svg>